<svg width="24px" height="24px" viewBox="0 0 24 24" version="1.1" xmlns="http://www.w3.org/2000/svg" xmlns:xlink="http://www.w3.org/1999/xlink"><path d="M6.732 1.284 C 5.027 1.436,3.490 2.608,2.884 4.220 C 2.710 4.683,2.647 4.966,2.601 5.483 C 2.547 6.095,2.547 19.800,2.601 20.315 C 2.685 21.112,2.896 21.612,3.340 22.064 C 3.920 22.655,4.738 22.872,5.600 22.663 C 6.054 22.553,6.435 22.359,9.102 20.878 C 11.770 19.397,11.750 19.406,12.226 19.481 C 12.480 19.522,12.247 19.400,15.060 20.960 C 16.358 21.681,17.519 22.320,17.640 22.381 C 18.219 22.672,18.869 22.801,19.381 22.725 C 20.187 22.605,20.775 22.164,21.122 21.420 C 21.442 20.736,21.415 21.429,21.431 13.200 C 21.441 8.032,21.431 5.731,21.400 5.423 C 21.286 4.299,20.813 3.320,20.015 2.558 C 19.209 1.788,18.307 1.379,17.197 1.281 C 16.648 1.233,7.280 1.235,6.732 1.284 M17.810 2.905 C 18.319 3.087,18.572 3.252,19.000 3.680 C 19.588 4.268,19.836 4.782,19.922 5.594 C 19.949 5.848,19.959 8.437,19.952 13.180 C 19.940 19.891,19.935 20.394,19.870 20.584 C 19.665 21.184,19.212 21.391,18.588 21.168 C 18.461 21.122,17.192 20.438,15.768 19.648 C 14.345 18.858,13.079 18.174,12.956 18.128 C 12.479 17.952,11.782 17.926,11.253 18.064 C 10.959 18.140,10.822 18.212,8.057 19.748 C 6.713 20.494,5.511 21.137,5.386 21.176 C 4.775 21.368,4.327 21.158,4.157 20.600 C 4.080 20.345,4.079 20.205,4.089 12.780 L 4.100 5.220 4.209 4.900 C 4.269 4.724,4.386 4.465,4.469 4.324 C 4.793 3.774,5.493 3.162,6.028 2.960 C 6.559 2.759,6.379 2.765,12.100 2.773 L 17.460 2.780 17.810 2.905 M11.603 7.548 C 11.424 7.642,11.319 7.790,11.277 8.006 C 11.259 8.102,11.243 8.572,11.242 9.050 L 11.240 9.920 10.238 9.920 C 9.306 9.920,9.226 9.926,9.075 10.003 C 8.843 10.121,8.743 10.358,8.770 10.730 C 8.792 11.041,8.864 11.170,9.084 11.300 C 9.209 11.373,9.305 11.381,10.227 11.392 L 11.233 11.405 11.247 12.432 C 11.262 13.590,11.282 13.680,11.554 13.849 C 11.672 13.923,11.758 13.940,12.000 13.940 C 12.242 13.940,12.328 13.923,12.446 13.849 C 12.718 13.680,12.738 13.590,12.753 12.432 L 12.767 11.405 13.773 11.392 C 14.695 11.381,14.791 11.373,14.916 11.300 C 15.136 11.170,15.208 11.041,15.230 10.730 C 15.257 10.358,15.157 10.121,14.925 10.003 C 14.774 9.926,14.694 9.920,13.765 9.920 L 12.767 9.920 12.754 8.930 C 12.741 8.026,12.733 7.928,12.660 7.804 C 12.521 7.568,12.392 7.502,12.047 7.488 C 11.811 7.479,11.708 7.493,11.603 7.548 " stroke="none" fill-rule="evenodd" fill="black"></path></svg>